<svg xmlns="http://www.w3.org/2000/svg" viewBox="0 0 64 64">
  <defs>
    <linearGradient id="bg" x1="8" x2="56" y1="6" y2="58" gradientUnits="userSpaceOnUse">
      <stop offset="0" stop-color="#f4fbff"/>
      <stop offset="1" stop-color="#d8eef7"/>
    </linearGradient>
    <linearGradient id="glass" x1="22" x2="42" y1="10" y2="54" gradientUnits="userSpaceOnUse">
      <stop offset="0" stop-color="#fdfefe" stop-opacity=".98"/>
      <stop offset="1" stop-color="#d6eef9" stop-opacity=".95"/>
    </linearGradient>
    <linearGradient id="liquid" x1="18" x2="46" y1="30" y2="54" gradientUnits="userSpaceOnUse">
      <stop offset="0" stop-color="#47b0d8"/>
      <stop offset="1" stop-color="#1e7ea7"/>
    </linearGradient>
  </defs>
  <rect width="64" height="64" rx="18" fill="url(#bg)"/>
  <path d="M26 9h12c1.7 0 3 1.3 3 3s-1.3 3-3 3h-1v8.2l10.2 17.5c4.2 7.2-.9 16.3-9.3 16.3H26.1c-8.4 0-13.5-9.1-9.3-16.3L27 23.2V15h-1c-1.7 0-3-1.3-3-3s1.3-3 3-3Z" fill="url(#glass)" stroke="#21546d" stroke-linejoin="round" stroke-width="2.2"/>
  <path d="M24.5 37.5h15.6c1.2 0 2.3-.5 3-1.4l4 6.9c2.8 4.7-.6 10.8-6 10.8H22.9c-5.4 0-8.8-6.1-6-10.8l5-8.6c.7 1.9 2.5 3.1 4.6 3.1Z" fill="url(#liquid)"/>
  <path d="M24 42c3.3 1.5 5.4 1.6 8.2.7 2.8-.9 5.2-3.3 9.6-2.3 1.8.4 3.4 1.3 5 2.8" fill="none" stroke="#d7f4ff" stroke-linecap="round" stroke-width="2"/>
  <circle cx="27" cy="30" r="1.8" fill="#8bd4ef"/>
  <circle cx="36.5" cy="27.5" r="1.4" fill="#8bd4ef"/>
  <circle cx="41" cy="33" r="1.2" fill="#8bd4ef"/>
</svg>
